<svg width="16" height="16" viewBox="0 0 16 16" xmlns="http://www.w3.org/2000/svg">
<path d="M13.25 1C13.3826 1 13.5098 1.05268 13.6036 1.14645C13.6973 1.24021 13.75 1.36739 13.75 1.5L13.7502 7.63125V7.78275C13.7502 7.80494 13.7443 7.82672 13.7331 7.84587C13.7219 7.86502 13.7058 7.88084 13.6865 7.89171C13.6671 7.90257 13.6452 7.9081 13.6231 7.90771C13.6009 7.90732 13.5792 7.90104 13.5603 7.8895C13.4905 7.847 13.4325 7.81325 13.386 7.78825C13.1155 7.64209 12.8307 7.52422 12.536 7.4365C12.4897 7.42275 12.426 7.4055 12.3445 7.385C12.3175 7.37816 12.2936 7.36252 12.2766 7.34056C12.2595 7.31859 12.2502 7.29157 12.2502 7.26375V7.07125L12.25 2.5H3.75V13.5H7.022C7.04611 13.5 7.06971 13.507 7.08994 13.5202C7.11016 13.5333 7.12616 13.552 7.136 13.574C7.17375 13.658 7.20425 13.7233 7.2275 13.7692C7.39982 14.1118 7.61515 14.431 7.86825 14.719C7.8865 14.7397 7.90825 14.7633 7.93275 14.7898C7.94943 14.8075 7.96054 14.8298 7.96472 14.8538C7.96889 14.8779 7.96595 14.9026 7.95625 14.925C7.94655 14.9473 7.93052 14.9664 7.91013 14.9798C7.88974 14.9931 7.86589 15.0003 7.8415 15.0002H7.76425L2.75 15C2.61739 15 2.49021 14.9473 2.39645 14.8536C2.30268 14.7598 2.25 14.6326 2.25 14.5V1.5C2.25 1.36739 2.30268 1.24021 2.39645 1.14645C2.49021 1.05268 2.61739 1 2.75 1H13.25ZM11.25 8.25C13.183 8.25 14.75 9.817 14.75 11.75C14.75 13.683 13.183 15.25 11.25 15.25C9.317 15.25 7.75 13.683 7.75 11.75C7.75 9.817 9.317 8.25 11.25 8.25ZM13.011 9.78475L12.9875 9.8055L10.375 12.4175L9.2625 11.305C9.21942 11.262 9.16213 11.2362 9.10137 11.2324C9.04062 11.2286 8.98057 11.2472 8.9325 11.2845L8.909 11.3053L8.37875 11.8355C8.33571 11.8785 8.30985 11.9358 8.30603 11.9966C8.30221 12.0573 8.32069 12.1174 8.358 12.1655L8.37875 12.189L10.1982 14.0085C10.2413 14.0515 10.2986 14.0774 10.3593 14.0812C10.4201 14.085 10.4801 14.0666 10.5282 14.0293L10.5518 14.0085L13.8713 10.689C13.9143 10.646 13.9402 10.5887 13.944 10.5279C13.9478 10.4672 13.9293 10.4071 13.892 10.359L13.8713 10.3355L13.341 9.80525C13.298 9.76221 13.2407 9.73635 13.1799 9.73253C13.1192 9.72871 13.0591 9.74719 13.011 9.7845V9.78475ZM5 3.75H11C11.1667 3.75 11.25 3.83333 11.25 4V5C11.25 5.16667 11.1667 5.25 11 5.25H5C4.83333 5.25 4.75 5.16667 4.75 5V4C4.75 3.83333 4.83333 3.75 5 3.75ZM5 6.25H9C9.16667 6.25 9.25 6.33333 9.25 6.5V7.5C9.25 7.66667 9.16667 7.75 9 7.75H5C4.83333 7.75 4.75 7.66667 4.75 7.5V6.5C4.75 6.33333 4.83333 6.25 5 6.25Z"  />
</svg>
